<svg id="Camada_1" data-name="Camada 1" xmlns="http://www.w3.org/2000/svg" viewBox="0 0 500 459.12"><defs><style>.cls-1{fill:#ee9759;}</style></defs><title>FAVICON_CINQ</title><path class="cls-1" d="M442.18,3.39a54.2,54.2,0,0,0-48.41,29.93H69.61A66,66,0,0,0,3.68,99.25v35.13A66,66,0,0,0,69.61,200.3H216a31.62,31.62,0,0,1,0,63.24H190.21a84.62,84.62,0,0,0-84.52,84.52,79.56,79.56,0,0,0,79.47,79.47h22.65a54.15,54.15,0,1,0,0-51.87H185.16a27.63,27.63,0,0,1-27.6-27.6,32.69,32.69,0,0,1,32.65-32.65H358.48a83.49,83.49,0,0,0,0-167H213a14.06,14.06,0,0,1-14-14.05V99.25a14.07,14.07,0,0,1,14-14.06H395.66a54.13,54.13,0,1,0,46.52-81.8ZM255.32,385.49a16.1,16.1,0,1,1-16.1,16.1A16.12,16.12,0,0,1,255.32,385.49ZM390.1,231.92a31.66,31.66,0,0,1-31.62,31.62H293.22a83.36,83.36,0,0,0,0-63.24h65.28A31.66,31.66,0,0,1,390.1,231.92ZM148.64,148.43h-79a14.07,14.07,0,0,1-14.06-14.05V99.25A14.08,14.08,0,0,1,69.61,85.19h79a66.41,66.41,0,0,0-1.52,14.06v35.13A66.39,66.39,0,0,0,148.64,148.43Zm293.54-74.8a16.1,16.1,0,1,1,16.1-16.1A16.12,16.12,0,0,1,442.18,73.63Z"/></svg>